<svg width="500" height="500" viewBox="0 0 500 500" fill="none" xmlns="http://www.w3.org/2000/svg">
<rect width="500" height="500" fill="#EEEEEE"/>
<path d="M165.004 362.089C147.888 362.089 133.115 358.716 120.686 351.969C108.328 345.151 98.8111 335.456 92.1349 322.885C85.5298 310.243 82.2273 295.222 82.2273 277.821C82.2273 260.918 85.5653 246.145 92.2415 233.503C98.9176 220.79 108.328 210.918 120.473 203.886C132.618 196.784 146.929 193.233 163.406 193.233C175.054 193.233 185.707 195.044 195.366 198.666C205.026 202.288 213.371 207.651 220.402 214.753C227.433 221.855 232.902 230.626 236.808 241.067C240.714 251.436 242.668 263.332 242.668 276.756V289.753H100.445V259.497H194.195C194.124 253.957 192.81 249.021 190.253 244.689C187.696 240.357 184.18 236.983 179.706 234.568C175.303 232.082 170.224 230.839 164.472 230.839C158.648 230.839 153.428 232.153 148.811 234.781C144.195 237.338 140.537 240.854 137.838 245.328C135.139 249.732 133.719 254.739 133.577 260.349V291.138C133.577 297.814 134.891 303.673 137.518 308.716C140.146 313.687 143.875 317.558 148.705 320.328C153.534 323.098 159.287 324.483 165.963 324.483C170.58 324.483 174.77 323.844 178.534 322.565C182.298 321.287 185.53 319.405 188.229 316.919C190.928 314.433 192.952 311.379 194.301 307.757L242.135 309.142C240.146 319.866 235.778 329.206 229.031 337.161C222.355 345.044 213.584 351.187 202.717 355.591C191.851 359.923 179.28 362.089 165.004 362.089ZM269.701 359V329.277L345.553 236.912V235.847H272.364V195.364H407.662V227.963L337.35 317.452V318.517H410.219V359H269.701Z" fill="#538BC8"/>
<path d="M120.686 351.969L118.271 356.347L118.286 356.355L118.301 356.363L120.686 351.969ZM92.1349 322.885L87.7034 325.2L87.7111 325.215L87.719 325.23L92.1349 322.885ZM92.2415 233.503L96.6628 235.838L96.6682 235.827L92.2415 233.503ZM120.473 203.886L122.978 208.213L122.988 208.208L122.997 208.202L120.473 203.886ZM195.366 198.666L197.122 193.985L197.122 193.985L195.366 198.666ZM236.808 241.067L232.125 242.819L232.129 242.829L236.808 241.067ZM242.668 289.753V294.753H247.668V289.753H242.668ZM100.445 289.753H95.4446V294.753H100.445V289.753ZM100.445 259.497V254.497H95.4446V259.497H100.445ZM194.195 259.497V264.497H199.259L199.194 259.433L194.195 259.497ZM179.706 234.568L177.248 238.922L177.289 238.946L177.331 238.968L179.706 234.568ZM148.811 234.781L151.234 239.155L151.259 239.141L151.285 239.127L148.811 234.781ZM137.838 245.328L142.101 247.941L142.11 247.926L142.12 247.911L137.838 245.328ZM133.577 260.349L128.578 260.223L128.577 260.286V260.349H133.577ZM137.518 308.716L133.084 311.027L133.091 311.04L133.098 311.052L137.518 308.716ZM148.705 320.328L146.217 324.665L146.217 324.665L148.705 320.328ZM178.534 322.565L180.142 327.3L180.142 327.3L178.534 322.565ZM188.229 316.919L191.616 320.597L191.616 320.597L188.229 316.919ZM194.301 307.757L194.446 302.759L190.866 302.656L189.616 306.012L194.301 307.757ZM242.135 309.142L247.051 310.054L248.116 304.313L242.28 304.144L242.135 309.142ZM229.031 337.161L225.218 333.926L225.216 333.929L229.031 337.161ZM202.717 355.591L204.569 360.235L204.582 360.23L204.595 360.225L202.717 355.591ZM165.004 357.089C148.547 357.089 134.629 353.849 123.072 347.574L118.301 356.363C131.601 363.583 147.229 367.089 165.004 367.089V357.089ZM123.101 347.591C111.601 341.246 102.776 332.261 96.5508 320.54L87.719 325.23C94.8464 338.651 105.055 349.055 118.271 356.347L123.101 347.591ZM96.5665 320.57C90.4083 308.783 87.2273 294.59 87.2273 277.821H77.2273C77.2273 295.853 80.6514 311.703 87.7034 325.2L96.5665 320.57ZM87.2273 277.821C87.2273 261.583 90.4303 247.64 96.6628 235.838L87.8201 231.168C80.7003 244.65 77.2273 260.252 77.2273 277.821H87.2273ZM96.6682 235.827C102.916 223.929 111.67 214.76 122.978 208.213L117.968 199.559C104.986 207.075 94.9188 217.65 87.8147 231.178L96.6682 235.827ZM122.997 208.202C134.254 201.62 147.663 198.233 163.406 198.233V188.233C146.195 188.233 130.982 191.949 117.949 199.57L122.997 208.202ZM163.406 198.233C174.531 198.233 184.581 199.962 193.611 203.348L197.122 193.985C186.834 190.127 175.577 188.233 163.406 188.233V198.233ZM193.611 203.348C202.616 206.725 210.342 211.698 216.849 218.271L223.955 211.235C216.399 203.603 207.435 197.852 197.122 193.985L193.611 203.348ZM216.849 218.271C223.328 224.816 228.438 232.964 232.125 242.819L241.491 239.315C237.366 228.289 231.538 218.895 223.955 211.235L216.849 218.271ZM232.129 242.829C235.784 252.53 237.668 263.811 237.668 276.756H247.668C247.668 262.854 245.645 250.342 241.487 239.304L232.129 242.829ZM237.668 276.756V289.753H247.668V276.756H237.668ZM242.668 284.753H100.445V294.753H242.668V284.753ZM105.445 289.753V259.497H95.4446V289.753H105.445ZM100.445 264.497H194.195V254.497H100.445V264.497ZM199.194 259.433C199.113 253.112 197.603 247.306 194.559 242.148L185.947 247.23C188.016 250.737 189.134 254.803 189.195 259.561L199.194 259.433ZM194.559 242.148C191.534 237.023 187.347 233.01 182.081 230.168L177.331 238.968C181.014 240.956 183.858 243.69 185.947 247.23L194.559 242.148ZM182.164 230.214C176.912 227.249 170.965 225.839 164.472 225.839V235.839C169.484 235.839 173.693 236.915 177.248 238.922L182.164 230.214ZM164.472 225.839C157.866 225.839 151.779 227.338 146.338 230.436L151.285 239.127C155.076 236.968 159.429 235.839 164.472 235.839V225.839ZM146.389 230.407C141.014 233.384 136.712 237.514 133.557 242.746L142.12 247.911C144.362 244.194 147.375 241.292 151.234 239.155L146.389 230.407ZM133.575 242.715C130.377 247.933 128.741 253.812 128.578 260.223L138.575 260.476C138.697 255.666 139.901 251.53 142.101 247.941L133.575 242.715ZM128.577 260.349V291.138H138.577V260.349H128.577ZM128.577 291.138C128.577 298.478 130.025 305.156 133.084 311.027L141.953 306.405C139.756 302.191 138.577 297.149 138.577 291.138H128.577ZM133.098 311.052C136.163 316.851 140.558 321.42 146.217 324.665L151.192 315.991C147.192 313.697 144.129 310.524 141.939 306.379L133.098 311.052ZM146.217 324.665C151.941 327.949 158.588 329.483 165.963 329.483V319.483C159.986 319.483 155.127 318.247 151.192 315.991L146.217 324.665ZM165.963 329.483C171.04 329.483 175.784 328.78 180.142 327.3L176.926 317.831C173.756 318.908 170.119 319.483 165.963 319.483V329.483ZM180.142 327.3C184.511 325.816 188.363 323.593 191.616 320.597L184.841 313.241C182.697 315.216 180.086 316.758 176.926 317.831L180.142 327.3ZM191.616 320.597C194.925 317.549 197.378 313.821 198.987 309.503L189.616 306.012C188.526 308.937 186.931 311.317 184.841 313.241L191.616 320.597ZM194.156 312.755L241.99 314.14L242.28 304.144L194.446 302.759L194.156 312.755ZM237.219 308.23C235.382 318.138 231.375 326.667 225.218 333.926L232.844 340.395C240.182 331.745 244.911 321.594 247.051 310.054L237.219 308.23ZM225.216 333.929C219.129 341.116 211.058 346.816 200.84 350.957L204.595 360.225C216.109 355.559 225.581 348.972 232.847 340.392L225.216 333.929ZM200.866 350.946C190.702 354.998 178.781 357.089 165.004 357.089V367.089C179.778 367.089 192.999 364.848 204.569 360.235L200.866 350.946ZM269.701 359H264.701V364H269.701V359ZM269.701 329.277L265.837 326.104L264.701 327.487V329.277H269.701ZM345.553 236.912L349.417 240.085L350.553 238.702V236.912H345.553ZM345.553 235.847H350.553V230.847H345.553V235.847ZM272.364 235.847H267.364V240.847H272.364V235.847ZM272.364 195.364V190.364H267.364V195.364H272.364ZM407.662 195.364H412.662V190.364H407.662V195.364ZM407.662 227.963L411.594 231.052L412.662 229.692V227.963H407.662ZM337.35 317.452L333.418 314.363L332.35 315.722V317.452H337.35ZM337.35 318.517H332.35V323.517H337.35V318.517ZM410.219 318.517H415.219V313.517H410.219V318.517ZM410.219 359V364H415.219V359H410.219ZM274.701 359V329.277H264.701V359H274.701ZM273.565 332.45L349.417 240.085L341.689 233.739L265.837 326.104L273.565 332.45ZM350.553 236.912V235.847H340.553V236.912H350.553ZM345.553 230.847H272.364V240.847H345.553V230.847ZM277.364 235.847V195.364H267.364V235.847H277.364ZM272.364 200.364H407.662V190.364H272.364V200.364ZM402.662 195.364V227.963H412.662V195.364H402.662ZM403.731 224.874L333.418 314.363L341.281 320.541L411.594 231.052L403.731 224.874ZM332.35 317.452V318.517H342.35V317.452H332.35ZM337.35 323.517H410.219V313.517H337.35V323.517ZM405.219 318.517V359H415.219V318.517H405.219ZM410.219 354H269.701V364H410.219V354Z" fill="black"/>
</svg>
